<svg version="1.1" xmlns="http://www.w3.org/2000/svg" xmlns:xlink="http://www.w3.org/1999/xlink" width="600" height="600"><defs/><g><rect fill="hsl(110, 48%, 37%)" stroke="none" x="275" y="50" width="25" height="25"/><rect fill="hsl(126, 68%, 46%)" stroke="none" x="300" y="50" width="25" height="25"/><rect fill="hsl(110, 48%, 37%)" stroke="none" x="300" y="75" width="25" height="25"/><rect fill="hsl(126, 68%, 46%)" stroke="none" x="325" y="75" width="25" height="25"/><rect fill="hsl(110, 48%, 37%)" stroke="none" x="325" y="100" width="25" height="25"/><rect fill="hsl(110, 48%, 37%)" stroke="none" x="325" y="125" width="25" height="25"/><rect fill="hsl(110, 48%, 37%)" stroke="none" x="325" y="150" width="25" height="25"/><rect fill="hsl(110, 48%, 37%)" stroke="none" x="325" y="175" width="25" height="25"/><rect fill="hsl(110, 48%, 37%)" stroke="none" x="325" y="200" width="25" height="25"/><rect fill="hsl(110, 48%, 37%)" stroke="none" x="325" y="225" width="25" height="25"/><rect fill="hsl(126, 68%, 46%)" stroke="none" x="350" y="100" width="25" height="25"/><rect fill="hsl(126, 68%, 46%)" stroke="none" x="350" y="125" width="25" height="25"/><rect fill="hsl(126, 68%, 46%)" stroke="none" x="350" y="150" width="25" height="25"/><rect fill="hsl(126, 68%, 46%)" stroke="none" x="350" y="175" width="25" height="25"/><rect fill="hsl(126, 68%, 46%)" stroke="none" x="350" y="200" width="25" height="25"/><rect fill="hsl(126, 68%, 46%)" stroke="none" x="350" y="225" width="25" height="25"/><rect fill="hsl(110, 48%, 37%)" stroke="none" x="300" y="250" width="25" height="25"/><rect fill="hsl(110, 48%, 37%)" stroke="none" x="275" y="275" width="25" height="25"/><rect fill="hsl(110, 48%, 37%)" stroke="none" x="250" y="300" width="25" height="25"/><rect fill="hsl(110, 48%, 37%)" stroke="none" x="225" y="325" width="25" height="25"/><rect fill="hsl(110, 48%, 37%)" stroke="none" x="200" y="325" width="25" height="25"/><rect fill="hsl(110, 48%, 37%)" stroke="none" x="175" y="325" width="25" height="25"/><rect fill="hsl(110, 48%, 37%)" stroke="none" x="150" y="325" width="25" height="25"/><rect fill="hsl(110, 48%, 37%)" stroke="none" x="125" y="325" width="25" height="25"/><rect fill="hsl(110, 48%, 37%)" stroke="none" x="100" y="325" width="25" height="25"/><rect fill="hsl(110, 48%, 37%)" stroke="none" x="75" y="300" width="25" height="25"/><rect fill="hsl(110, 48%, 37%)" stroke="none" x="50" y="275" width="25" height="25"/><rect fill="hsl(126, 68%, 46%)" stroke="none" x="325" y="250" width="25" height="25"/><rect fill="hsl(126, 68%, 46%)" stroke="none" x="325" y="275" width="25" height="25"/><rect fill="hsl(126, 68%, 46%)" stroke="none" x="300" y="275" width="25" height="25"/><rect fill="hsl(126, 68%, 46%)" stroke="none" x="300" y="300" width="25" height="25"/><rect fill="hsl(126, 68%, 46%)" stroke="none" x="275" y="300" width="25" height="25"/><rect fill="hsl(126, 68%, 46%)" stroke="none" x="275" y="325" width="25" height="25"/><rect fill="hsl(126, 68%, 46%)" stroke="none" x="250" y="325" width="25" height="25"/><rect fill="hsl(126, 68%, 46%)" stroke="none" x="225" y="350" width="25" height="25"/><rect fill="hsl(126, 68%, 46%)" stroke="none" x="200" y="350" width="25" height="25"/><rect fill="hsl(126, 68%, 46%)" stroke="none" x="175" y="350" width="25" height="25"/><rect fill="hsl(126, 68%, 46%)" stroke="none" x="150" y="350" width="25" height="25"/><rect fill="hsl(126, 68%, 46%)" stroke="none" x="125" y="350" width="25" height="25"/><rect fill="hsl(126, 68%, 46%)" stroke="none" x="100" y="350" width="25" height="25"/><rect fill="hsl(126, 68%, 46%)" stroke="none" x="75" y="325" width="25" height="25"/><rect fill="hsl(126, 68%, 46%)" stroke="none" x="50" y="300" width="25" height="25"/><rect fill="hsl(6, 64%, 67%)" stroke="none" x="75" y="275" width="25" height="25"/><rect fill="hsl(6, 64%, 67%)" stroke="none" x="100" y="275" width="25" height="25"/><rect fill="hsl(6, 64%, 67%)" stroke="none" x="100" y="300" width="25" height="25"/><rect fill="hsl(6, 64%, 67%)" stroke="none" x="125" y="300" width="25" height="25"/><rect fill="hsl(6, 64%, 67%)" stroke="none" x="150" y="300" width="25" height="25"/><rect fill="hsl(6, 64%, 67%)" stroke="none" x="175" y="300" width="25" height="25"/><rect fill="hsl(6, 64%, 67%)" stroke="none" x="200" y="300" width="25" height="25"/><rect fill="hsl(6, 64%, 67%)" stroke="none" x="225" y="300" width="25" height="25"/><rect fill="hsl(6, 64%, 67%)" stroke="none" x="225" y="275" width="25" height="25"/><rect fill="hsl(6, 64%, 67%)" stroke="none" x="250" y="275" width="25" height="25"/><rect fill="hsl(6, 64%, 67%)" stroke="none" x="275" y="250" width="25" height="25"/><rect fill="hsl(6, 64%, 67%)" stroke="none" x="275" y="225" width="25" height="25"/><rect fill="hsl(6, 64%, 67%)" stroke="none" x="300" y="225" width="25" height="25"/><rect fill="hsl(6, 64%, 67%)" stroke="none" x="300" y="200" width="25" height="25"/><rect fill="hsl(6, 64%, 67%)" stroke="none" x="300" y="175" width="25" height="25"/><rect fill="hsl(6, 64%, 67%)" stroke="none" x="300" y="150" width="25" height="25"/><rect fill="hsl(6, 64%, 67%)" stroke="none" x="300" y="125" width="25" height="25"/><rect fill="hsl(6, 64%, 67%)" stroke="none" x="300" y="100" width="25" height="25"/><rect fill="hsl(6, 64%, 67%)" stroke="none" x="275" y="100" width="25" height="25"/><rect fill="hsl(6, 64%, 67%)" stroke="none" x="275" y="75" width="25" height="25"/><rect fill="hsl(357, 90%, 47%)" stroke="none" x="250" y="75" width="25" height="25"/><rect fill="hsl(357, 90%, 47%)" stroke="none" x="250" y="100" width="25" height="25"/><rect fill="hsl(357, 90%, 47%)" stroke="none" x="225" y="100" width="25" height="25"/><rect fill="hsl(357, 90%, 47%)" stroke="none" x="225" y="100" width="25" height="25"/><rect fill="hsl(357, 90%, 47%)" stroke="none" x="225" y="125" width="25" height="25"/><rect fill="hsl(357, 90%, 47%)" stroke="none" x="200" y="125" width="25" height="25"/><rect fill="hsl(357, 90%, 47%)" stroke="none" x="200" y="150" width="25" height="25"/><rect fill="hsl(357, 90%, 47%)" stroke="none" x="175" y="150" width="25" height="25"/><rect fill="hsl(357, 90%, 47%)" stroke="none" x="175" y="175" width="25" height="25"/><rect fill="hsl(357, 90%, 47%)" stroke="none" x="150" y="175" width="25" height="25"/><rect fill="hsl(357, 90%, 47%)" stroke="none" x="150" y="200" width="25" height="25"/><rect fill="hsl(357, 90%, 47%)" stroke="none" x="125" y="200" width="25" height="25"/><rect fill="hsl(357, 90%, 47%)" stroke="none" x="125" y="225" width="25" height="25"/><rect fill="hsl(357, 90%, 47%)" stroke="none" x="100" y="225" width="25" height="25"/><rect fill="hsl(357, 90%, 47%)" stroke="none" x="100" y="250" width="25" height="25"/><rect fill="hsl(357, 90%, 47%)" stroke="none" x="75" y="250" width="25" height="25"/><rect fill="hsl(357, 90%, 47%)" stroke="none" x="125" y="275" width="25" height="25"/><rect fill="hsl(357, 90%, 47%)" stroke="none" x="150" y="275" width="25" height="25"/><rect fill="hsl(357, 90%, 47%)" stroke="none" x="175" y="275" width="25" height="25"/><rect fill="hsl(357, 90%, 47%)" stroke="none" x="200" y="275" width="25" height="25"/><rect fill="hsl(357, 90%, 47%)" stroke="none" x="150" y="250" width="25" height="25"/><rect fill="hsl(357, 90%, 47%)" stroke="none" x="175" y="250" width="25" height="25"/><rect fill="hsl(357, 90%, 47%)" stroke="none" x="200" y="250" width="25" height="25"/><rect fill="hsl(357, 90%, 47%)" stroke="none" x="225" y="250" width="25" height="25"/><rect fill="hsl(357, 90%, 47%)" stroke="none" x="225" y="225" width="25" height="25"/><rect fill="hsl(357, 90%, 47%)" stroke="none" x="200" y="225" width="25" height="25"/><rect fill="hsl(357, 90%, 47%)" stroke="none" x="250" y="225" width="25" height="25"/><rect fill="hsl(357, 90%, 47%)" stroke="none" x="250" y="250" width="25" height="25"/><rect fill="hsl(357, 90%, 47%)" stroke="none" x="150" y="225" width="25" height="25"/><rect fill="hsl(357, 90%, 47%)" stroke="none" x="175" y="200" width="25" height="25"/><rect fill="hsl(357, 90%, 47%)" stroke="none" x="200" y="200" width="25" height="25"/><rect fill="hsl(357, 90%, 47%)" stroke="none" x="225" y="200" width="25" height="25"/><rect fill="hsl(357, 90%, 47%)" stroke="none" x="250" y="200" width="25" height="25"/><rect fill="hsl(357, 90%, 47%)" stroke="none" x="275" y="200" width="25" height="25"/><rect fill="hsl(357, 90%, 47%)" stroke="none" x="200" y="175" width="25" height="25"/><rect fill="hsl(357, 90%, 47%)" stroke="none" x="250" y="175" width="25" height="25"/><rect fill="hsl(357, 90%, 47%)" stroke="none" x="275" y="175" width="25" height="25"/><rect fill="hsl(357, 90%, 47%)" stroke="none" x="275" y="150" width="25" height="25"/><rect fill="hsl(357, 90%, 47%)" stroke="none" x="275" y="125" width="25" height="25"/><rect fill="hsl(357, 90%, 47%)" stroke="none" x="250" y="150" width="25" height="25"/><rect fill="hsl(357, 90%, 47%)" stroke="none" x="225" y="150" width="25" height="25"/><rect fill="hsl(357, 0%, 0%)" stroke="none" x="250" y="125" width="25" height="25"/><rect fill="hsl(357, 0%, 0%)" stroke="none" x="225" y="175" width="25" height="25"/><rect fill="hsl(357, 0%, 0%)" stroke="none" x="175" y="225" width="25" height="25"/><rect fill="hsl(357, 0%, 0%)" stroke="none" x="125" y="250" width="25" height="25"/></g></svg>